<svg width="24" height="24" fill="none" xmlns="http://www.w3.org/2000/svg"><path fill-rule="evenodd" clip-rule="evenodd" d="M11.995 15.5a3.5 3.5 0 100-7 3.5 3.5 0 000 7zm0-2.006a1.494 1.494 0 110-2.988 1.494 1.494 0 010 2.988z" fill="#636363"/><path fill-rule="evenodd" clip-rule="evenodd" d="M12.001 5C7.19 5 3.918 7.609 2.191 9.48a3.679 3.679 0 000 5.04C3.917 16.391 7.19 19 12 19c4.811 0 8.083-2.609 9.81-4.48a3.679 3.679 0 000-5.04C20.085 7.609 16.813 5 12.002 5zM3.66 10.837C5.19 9.18 7.968 7 12 7c4.033 0 6.812 2.18 8.341 3.837a1.68 1.68 0 010 2.326C18.812 14.82 16.034 17 12.001 17c-4.033 0-6.812-2.18-8.341-3.837a1.68 1.68 0 010-2.326z" fill="#636363"/></svg>