<svg width="38" height="38" fill="none" xmlns="http://www.w3.org/2000/svg"><path fill-rule="evenodd" clip-rule="evenodd" d="M14.693 9.677c-1.277.629-3.065 1.273-6.356 1.496-.796.053-1.316.669-1.293 1.285.124 3.42.52 6.82 1.275 9.61.773 2.856 1.849 4.793 3.124 5.643a172.51 172.51 0 014.77 3.295 1.357 1.357 0 001.573 0 172.665 172.665 0 014.77-3.295c1.275-.85 2.352-2.787 3.124-5.642.756-2.79 1.15-6.192 1.276-9.611.022-.616-.498-1.232-1.294-1.285-3.29-.223-5.079-.867-6.356-1.496-.365-.18-.647-.329-.879-.451-.633-.336-.89-.472-1.427-.472-.539 0-.794.136-1.428.472-.232.122-.514.272-.879.451zm-.585-2.515c.77-.417 1.675-.908 2.892-.908 1.216 0 2.122.49 2.892.908a15 15 0 00.518.272c.968.477 2.436 1.043 5.42 1.244 1.96.133 3.702 1.727 3.624 3.87-.129 3.527-.538 7.134-1.36 10.174-.805 2.974-2.08 5.689-4.151 7.07-1.98 1.32-3.61 2.465-4.7 3.246a3.857 3.857 0 01-4.487 0 169.88 169.88 0 00-4.7-3.246c-2.071-1.381-3.345-4.096-4.15-7.07-.823-3.04-1.232-6.647-1.36-10.173-.079-2.144 1.664-3.738 3.623-3.87 2.984-.202 4.452-.768 5.42-1.245.167-.082.34-.175.518-.272z" fill="#D52B1E"/><path stroke="#D52B1E" stroke-width="3" d="M1.061 1.939l35 35"/></svg>