<svg width="42" height="42" fill="none" xmlns="http://www.w3.org/2000/svg"><path fill-rule="evenodd" clip-rule="evenodd" d="M21 21c4.832 0 8.75-4.31 8.75-9.625 0-5.316-3.918-9.625-8.75-9.625s-8.75 4.31-8.75 9.625C12.25 16.691 16.168 21 21 21zm0-3.85c-2.9 0-5.25-2.586-5.25-5.775C15.75 8.185 18.1 5.6 21 5.6s5.25 2.586 5.25 5.775c0 3.19-2.35 5.775-5.25 5.775zm12.43 7.54a4.564 4.564 0 00-5.577-.717c-.333.198-.626.378-.897.545-.717.443-1.274.787-1.992 1.082-.901.37-2.068.65-3.964.65-1.878 0-3.064-.264-3.98-.622-.809-.316-1.448-.713-2.29-1.237l-.52-.321a4.6 4.6 0 00-5.698.678c-.664.672-1.441 1.54-2.063 2.487-.593.902-1.199 2.102-1.199 3.39v4.376c0 2.9 2.35 5.249 5.25 5.249h21c2.9 0 5.25-2.35 5.25-5.25v-4.375c0-1.305-.622-2.521-1.226-3.432-.634-.956-1.425-1.831-2.094-2.503zm-3.79 2.293a1.064 1.064 0 011.311.178c.587.588 1.2 1.28 1.657 1.968.487.733.642 1.237.642 1.496v4.376a1.75 1.75 0 01-1.75 1.749h-21A1.75 1.75 0 018.75 35v-4.375c0-.254.15-.747.623-1.468.445-.676 1.046-1.36 1.627-1.947a1.1 1.1 0 011.38-.157l.442.275c.844.527 1.79 1.117 2.925 1.56 1.39.544 3.02.862 5.253.862 2.275 0 3.905-.342 5.294-.913 1.007-.414 1.895-.963 2.679-1.447.23-.143.453-.28.666-.407z" fill="#636363"/></svg>