<svg width="24" height="24" fill="none" xmlns="http://www.w3.org/2000/svg"><path fill-rule="evenodd" clip-rule="evenodd" d="M18.627 13.48a8 8 0 10-13.418-.247l-3.153 5.463a1 1 0 00.806 1.498l2.997.18 1.654 2.505a1 1 0 001.7-.051L12 18l2.633 4.561a1 1 0 001.7.051l1.573-2.382 2.85-.17a1 1 0 00.805-1.499l-2.934-5.081zM12 15a6 6 0 100-12 6 6 0 000 12zm1.635 1.833l1.922 3.328.957-1.449a1 1 0 01.774-.447l1.733-.104-1.793-3.106a7.974 7.974 0 01-3.593 1.778zm-9.037 1.461l1.973-3.418a7.979 7.979 0 003.795 1.957L8.29 20.427l-1.038-1.572a1 1 0 00-.775-.448l-1.88-.113z" fill="#fff"/></svg>