<svg width="24" height="24" fill="none" xmlns="http://www.w3.org/2000/svg"><path d="M16.246 8.29a1 1 0 111.414 1.415l-5.755 5.754a2 2 0 01-2.829 0l-1.783-1.783a1 1 0 111.415-1.414l1.076 1.076a1 1 0 001.414 0l5.048-5.047z" fill="#fff"/><path fill-rule="evenodd" clip-rule="evenodd" d="M12 1c-.973 0-1.697.393-2.313.726-.144.078-.281.152-.414.218-.776.381-1.95.834-4.337.995-1.567.106-2.961 1.382-2.899 3.097.103 2.82.43 5.706 1.088 8.138.644 2.38 1.664 4.551 3.32 5.656a136.173 136.173 0 013.76 2.597 3.086 3.086 0 003.59 0 136.25 136.25 0 013.76-2.597c1.657-1.105 2.677-3.276 3.32-5.656.659-2.431.986-5.317 1.089-8.138.062-1.715-1.332-2.99-2.899-3.097-2.387-.16-3.562-.614-4.337-.995-.133-.065-.27-.14-.414-.218-.616-.333-1.34-.726-2.313-.726zM5.07 4.935c2.633-.178 4.064-.694 5.085-1.196.292-.144.518-.263.703-.362.507-.268.712-.377 1.143-.377.43 0 .635.108 1.142.377.185.099.41.218.703.362 1.021.502 2.452 1.018 5.084 1.196.637.043 1.053.535 1.035 1.028-.1 2.736-.416 5.457-1.02 7.689-.618 2.284-1.48 3.834-2.5 4.514a138.26 138.26 0 00-3.815 2.636 1.086 1.086 0 01-1.259 0 138.074 138.074 0 00-3.816-2.636c-1.02-.68-1.881-2.23-2.5-4.514-.603-2.232-.92-4.953-1.02-7.689-.017-.493.399-.985 1.036-1.028z" fill="#fff"/></svg>