<svg width="24" height="24" fill="none" xmlns="http://www.w3.org/2000/svg"><path fill-rule="evenodd" clip-rule="evenodd" d="M12.897 3.615a1 1 0 00-1.796 0L3.305 19.562a1 1 0 00.898 1.44h15.592a1 1 0 00.898-1.44L12.897 3.615zm-3.593-.878c1.096-2.243 4.293-2.243 5.39 0l7.796 15.946c.975 1.994-.476 4.318-2.695 4.318H4.203c-2.218 0-3.67-2.325-2.695-4.318L9.304 2.737z" fill="#8E8E8E"/><path d="M10.999 8.501a1 1 0 112 0v5.5a1 1 0 01-2 0v-5.5zm2.5 9.5a1.5 1.5 0 11-3 0 1.5 1.5 0 013 0z" fill="#8E8E8E"/></svg>