<svg width="24" height="24" fill="none" xmlns="http://www.w3.org/2000/svg"><path d="M4.497 7.44A15.122 15.122 0 002.19 9.48a3.679 3.679 0 000 5.04c1.728 1.87 5 4.48 9.811 4.48 1.296 0 2.48-.19 3.552-.503l-1.663-1.662c-.595.106-1.225.165-1.889.165-4.033 0-6.812-2.18-8.341-3.837a1.68 1.68 0 010-2.327 12.972 12.972 0 012.273-1.959L4.497 7.441z" fill="#636363"/><path d="M8.534 11.478a3.5 3.5 0 003.983 3.983l-3.983-3.983zm6.933.969l-3.919-3.919a3.5 3.5 0 013.919 3.919z" fill="#636363"/><path d="M18.113 15.093a12.982 12.982 0 002.23-1.93 1.68 1.68 0 000-2.327C18.812 9.18 16.033 7 12 7c-.64 0-1.25.055-1.827.154L8.506 5.486A12.623 12.623 0 0112 5c4.811 0 8.083 2.609 9.81 4.48a3.679 3.679 0 010 5.04c-.58.629-1.334 1.34-2.263 2.008l-1.435-1.435zM2.009 3.422a1 1 0 111.414-1.414l18.578 18.578A1 1 0 0120.587 22L2.01 3.422z" fill="#636363"/></svg>