<svg width="25" height="25" fill="none" xmlns="http://www.w3.org/2000/svg"><path d="M25 12.508c0 .798-.077 1.565-.215 2.317a12.382 12.382 0 01-4.236 7.228l-3.53-3.33a7.591 7.591 0 002.81-3.898h-7.245v-4.573H24.8c.139.736.2 1.488.2 2.256z" fill="#4E64AC"/><path d="M20.55 22.053A12.421 12.421 0 0112.507 25c-4.742 0-8.886-2.655-11.004-6.568l3.806-3.208c1.105 2.9 3.913 4.972 7.198 4.972a7.712 7.712 0 004.527-1.473l3.514 3.33z" fill="#389832"/><path d="M4.804 12.508c0 .951.168 1.872.49 2.716l-3.79 3.208A12.306 12.306 0 010 12.508c0-2.072.506-4.021 1.397-5.74l3.928 2.947a7.719 7.719 0 00-.521 2.793z" fill="#FBB705"/><path d="M21.01 3.346l-3.407 3.407a7.658 7.658 0 00-5.11-1.95A7.716 7.716 0 005.31 9.715L1.397 6.768A12.494 12.494 0 0112.507 0c3.27 0 6.262 1.274 8.503 3.346z" fill="#F91D13"/></svg>