<svg width="26" height="26" fill="none" xmlns="http://www.w3.org/2000/svg"><path fill-rule="evenodd" clip-rule="evenodd" d="M2.053 21.074l-.054-8a1 1 0 112-.014l.054 8a1 1 0 001.007.993l16-.109a1 1 0 00.993-1.006l-.055-8a1 1 0 012-.014l.055 8a3 3 0 01-2.98 3.02l-16 .11a3 3 0 01-3.02-2.98z" fill="#68E1FC"/><path fill-rule="evenodd" clip-rule="evenodd" d="M14.354 19.678a2 2 0 01-2.62.018l-4.847-4.144c-1.408-1.203-.566-3.508 1.286-3.52l1.819-.012-.041-6a2 2 0 011.986-2.014l2-.014a2 2 0 012.014 1.987l.04 6 1.82-.013c1.851-.012 2.724 2.28 1.334 3.503l-4.791 4.21zm-1.979-2.066a1 1 0 001.31-.008l4.14-3.638-2.32.016a1.5 1.5 0 01-1.51-1.49l-.044-6.5-2 .014.044 6.5a1.5 1.5 0 01-1.49 1.51l-2.319.016 4.19 3.58z" fill="#68E1FC"/></svg>