<svg width="24" height="24" fill="none" xmlns="http://www.w3.org/2000/svg"><path d="M19 1a1 1 0 112 0v.586L22.27.315a1 1 0 111.415 1.414L22.415 3H23a1 1 0 110 2h-2.586l-7.712 7.713a1 1 0 01-1.415-1.415L19 3.586V1z" fill="#fff"/><path d="M17.392 3.79c.442-.442.376-1.18-.174-1.476A10.951 10.951 0 0012 1C5.925 1 1 5.925 1 12s4.925 11 11 11 11-4.925 11-11a10.95 10.95 0 00-1.31-5.209c-.295-.55-1.033-.617-1.475-.175l-.03.03c-.33.33-.382.842-.169 1.258.63 1.229.984 2.62.984 4.096a9 9 0 11-9-9 8.96 8.96 0 014.104.988c.416.213.928.161 1.259-.17l.03-.029z" fill="#fff"/><path d="M14.39 6.792c.473-.473.354-1.269-.284-1.47a7 7 0 104.575 4.582c-.2-.637-.996-.757-1.47-.284l-.092.092c-.28.281-.36.7-.264 1.086a5 5 0 11-3.645-3.651c.386.096.807.018 1.088-.264l.092-.091z" fill="#fff"/><path d="M11.078 9.151c.41-.136.615.337.31.642l-.805.806a1.997 1.997 0 102.825 2.825l.795-.795c.306-.306.78-.099.64.31C14.44 14.122 13.313 15 12 15a3 3 0 01-3-3c0-1.32.888-2.452 2.078-2.849z" fill="#fff"/></svg>